<mxfile host="app.diagrams.net" modified="2023-11-20T04:21:15.069Z" agent="Mozilla/5.0 (Windows NT 10.0; Win64; x64) AppleWebKit/537.36 (KHTML, like Gecko) Chrome/119.0.0.0 Safari/537.36" etag="X-2XeUkGuJWP4C_SqkhB" version="22.1.3" type="github">
  <diagram name="Page-1" id="YvsWlIr5kFeMnCdXH-4M">
    <mxGraphModel dx="2578" dy="925" grid="1" gridSize="10" guides="1" tooltips="1" connect="1" arrows="1" fold="1" page="1" pageScale="1" pageWidth="850" pageHeight="1100" math="1" shadow="0">
      <root>
        <mxCell id="0" />
        <mxCell id="1" parent="0" />
        <mxCell id="oD_eJIm5UnqlN1Q406x1-1" value="64 filters, 7\(\times\)7&lt;br&gt;s=1" style="rounded=0;whiteSpace=wrap;html=1;rotation=-90;fillColor=#fff2cc;strokeColor=#d6b656;" vertex="1" parent="1">
          <mxGeometry x="-340" y="480" width="280" height="40" as="geometry" />
        </mxCell>
        <mxCell id="oD_eJIm5UnqlN1Q406x1-9" value="128 filters, 3\(\times\)3&lt;br&gt;s=2" style="rounded=0;whiteSpace=wrap;html=1;rotation=-90;fillColor=#fff2cc;strokeColor=#d6b656;" vertex="1" parent="1">
          <mxGeometry x="-240" y="480" width="200" height="40" as="geometry" />
        </mxCell>
        <mxCell id="oD_eJIm5UnqlN1Q406x1-10" value="256 filters, 3\(\times\)3&lt;br&gt;s=2" style="rounded=0;whiteSpace=wrap;html=1;rotation=-90;fillColor=#fff2cc;strokeColor=#d6b656;" vertex="1" parent="1">
          <mxGeometry x="-140" y="480" width="120" height="40" as="geometry" />
        </mxCell>
        <mxCell id="oD_eJIm5UnqlN1Q406x1-11" value="256 filters, 3\(\times\)3&lt;br&gt;s=1" style="rounded=0;whiteSpace=wrap;html=1;rotation=-90;fillColor=#ffe6cc;strokeColor=#d79b00;" vertex="1" parent="1">
          <mxGeometry x="-80" y="480" width="120" height="40" as="geometry" />
        </mxCell>
        <mxCell id="oD_eJIm5UnqlN1Q406x1-12" value="256 filters, 3\(\times\)3&lt;br&gt;s=1" style="rounded=0;whiteSpace=wrap;html=1;rotation=-90;fillColor=#ffe6cc;strokeColor=#d79b00;" vertex="1" parent="1">
          <mxGeometry x="-20" y="480" width="120" height="40" as="geometry" />
        </mxCell>
        <mxCell id="oD_eJIm5UnqlN1Q406x1-13" value="256 filters, 3\(\times\)3&lt;br&gt;s=1" style="rounded=0;whiteSpace=wrap;html=1;rotation=-90;fillColor=#ffe6cc;strokeColor=#d79b00;" vertex="1" parent="1">
          <mxGeometry x="40" y="480" width="120" height="40" as="geometry" />
        </mxCell>
        <mxCell id="oD_eJIm5UnqlN1Q406x1-14" value="256 filters, 3\(\times\)3&lt;br&gt;s=1" style="rounded=0;whiteSpace=wrap;html=1;rotation=-90;fillColor=#ffe6cc;strokeColor=#d79b00;" vertex="1" parent="1">
          <mxGeometry x="100" y="480" width="120" height="40" as="geometry" />
        </mxCell>
        <mxCell id="oD_eJIm5UnqlN1Q406x1-15" value="256 filters, 3\(\times\)3&lt;br&gt;s=1" style="rounded=0;whiteSpace=wrap;html=1;rotation=-90;fillColor=#ffe6cc;strokeColor=#d79b00;" vertex="1" parent="1">
          <mxGeometry x="160" y="480" width="120" height="40" as="geometry" />
        </mxCell>
        <mxCell id="oD_eJIm5UnqlN1Q406x1-16" value="256 filters, 3\(\times\)3&lt;br&gt;s=1" style="rounded=0;whiteSpace=wrap;html=1;rotation=-90;fillColor=#ffe6cc;strokeColor=#d79b00;" vertex="1" parent="1">
          <mxGeometry x="220" y="480" width="120" height="40" as="geometry" />
        </mxCell>
        <mxCell id="oD_eJIm5UnqlN1Q406x1-17" value="128 filters, 3\(\times\)3&lt;br&gt;s=2" style="rounded=0;whiteSpace=wrap;html=1;rotation=-90;fillColor=#d5e8d4;strokeColor=#82b366;" vertex="1" parent="1">
          <mxGeometry x="240" y="480" width="200" height="40" as="geometry" />
        </mxCell>
        <mxCell id="oD_eJIm5UnqlN1Q406x1-19" value="64 filters, 3\(\times\)3&lt;br&gt;s=2" style="rounded=0;whiteSpace=wrap;html=1;rotation=-90;fillColor=#d5e8d4;strokeColor=#82b366;" vertex="1" parent="1">
          <mxGeometry x="260" y="480" width="280" height="40" as="geometry" />
        </mxCell>
        <mxCell id="oD_eJIm5UnqlN1Q406x1-20" value="3 filters, 7\(\times\)7&lt;br&gt;s=1" style="rounded=0;whiteSpace=wrap;html=1;rotation=-90;fillColor=#fff2cc;strokeColor=#d6b656;" vertex="1" parent="1">
          <mxGeometry x="320" y="480" width="280" height="40" as="geometry" />
        </mxCell>
        <mxCell id="oD_eJIm5UnqlN1Q406x1-21" value="`k`" style="text;html=1;align=center;verticalAlign=middle;resizable=0;points=[];autosize=1;strokeColor=none;fillColor=none;" vertex="1" parent="1">
          <mxGeometry x="-220" y="640" width="40" height="30" as="geometry" />
        </mxCell>
        <mxCell id="oD_eJIm5UnqlN1Q406x1-22" value="\(\cfrac{k}{2}\)" style="text;html=1;align=center;verticalAlign=middle;resizable=0;points=[];autosize=1;strokeColor=none;fillColor=none;" vertex="1" parent="1">
          <mxGeometry x="-190" y="610" width="100" height="30" as="geometry" />
        </mxCell>
        <mxCell id="oD_eJIm5UnqlN1Q406x1-23" value="\(\cfrac{k}{4}\)" style="text;html=1;align=center;verticalAlign=middle;resizable=0;points=[];autosize=1;strokeColor=none;fillColor=none;" vertex="1" parent="1">
          <mxGeometry x="-130" y="570" width="100" height="30" as="geometry" />
        </mxCell>
        <mxCell id="oD_eJIm5UnqlN1Q406x1-24" value="\(\cfrac{k}{4}\)" style="text;html=1;align=center;verticalAlign=middle;resizable=0;points=[];autosize=1;strokeColor=none;fillColor=none;" vertex="1" parent="1">
          <mxGeometry x="-70" y="570" width="100" height="30" as="geometry" />
        </mxCell>
        <mxCell id="oD_eJIm5UnqlN1Q406x1-25" value="\(\cfrac{k}{4}\)" style="text;html=1;align=center;verticalAlign=middle;resizable=0;points=[];autosize=1;strokeColor=none;fillColor=none;" vertex="1" parent="1">
          <mxGeometry x="-10" y="570" width="100" height="30" as="geometry" />
        </mxCell>
        <mxCell id="oD_eJIm5UnqlN1Q406x1-26" value="\(\cfrac{k}{4}\)" style="text;html=1;align=center;verticalAlign=middle;resizable=0;points=[];autosize=1;strokeColor=none;fillColor=none;" vertex="1" parent="1">
          <mxGeometry x="50" y="570" width="100" height="30" as="geometry" />
        </mxCell>
        <mxCell id="oD_eJIm5UnqlN1Q406x1-27" value="\(\cfrac{k}{4}\)" style="text;html=1;align=center;verticalAlign=middle;resizable=0;points=[];autosize=1;strokeColor=none;fillColor=none;" vertex="1" parent="1">
          <mxGeometry x="110" y="570" width="100" height="30" as="geometry" />
        </mxCell>
        <mxCell id="oD_eJIm5UnqlN1Q406x1-28" value="\(\cfrac{k}{4}\)" style="text;html=1;align=center;verticalAlign=middle;resizable=0;points=[];autosize=1;strokeColor=none;fillColor=none;" vertex="1" parent="1">
          <mxGeometry x="170" y="570" width="100" height="30" as="geometry" />
        </mxCell>
        <mxCell id="oD_eJIm5UnqlN1Q406x1-29" value="\(\cfrac{k}{4}\)" style="text;html=1;align=center;verticalAlign=middle;resizable=0;points=[];autosize=1;strokeColor=none;fillColor=none;" vertex="1" parent="1">
          <mxGeometry x="230" y="570" width="100" height="30" as="geometry" />
        </mxCell>
        <mxCell id="oD_eJIm5UnqlN1Q406x1-30" value="\(\cfrac{k}{2}\)" style="text;html=1;align=center;verticalAlign=middle;resizable=0;points=[];autosize=1;strokeColor=none;fillColor=none;" vertex="1" parent="1">
          <mxGeometry x="290" y="610" width="100" height="30" as="geometry" />
        </mxCell>
        <mxCell id="oD_eJIm5UnqlN1Q406x1-31" value="`k`" style="text;html=1;align=center;verticalAlign=middle;resizable=0;points=[];autosize=1;strokeColor=none;fillColor=none;" vertex="1" parent="1">
          <mxGeometry x="380" y="640" width="40" height="30" as="geometry" />
        </mxCell>
        <mxCell id="oD_eJIm5UnqlN1Q406x1-32" value="`k`" style="text;html=1;align=center;verticalAlign=middle;resizable=0;points=[];autosize=1;strokeColor=none;fillColor=none;" vertex="1" parent="1">
          <mxGeometry x="440" y="640" width="40" height="30" as="geometry" />
        </mxCell>
        <mxCell id="oD_eJIm5UnqlN1Q406x1-33" value="" style="endArrow=classic;html=1;rounded=0;" edge="1" parent="1" source="oD_eJIm5UnqlN1Q406x1-1" target="oD_eJIm5UnqlN1Q406x1-9">
          <mxGeometry width="50" height="50" relative="1" as="geometry">
            <mxPoint x="50" y="620" as="sourcePoint" />
            <mxPoint x="100" y="570" as="targetPoint" />
          </mxGeometry>
        </mxCell>
        <mxCell id="oD_eJIm5UnqlN1Q406x1-34" value="" style="endArrow=classic;html=1;rounded=0;exitX=0.5;exitY=1;exitDx=0;exitDy=0;" edge="1" parent="1" source="oD_eJIm5UnqlN1Q406x1-9" target="oD_eJIm5UnqlN1Q406x1-10">
          <mxGeometry width="50" height="50" relative="1" as="geometry">
            <mxPoint x="-170" y="510" as="sourcePoint" />
            <mxPoint x="-150" y="510" as="targetPoint" />
          </mxGeometry>
        </mxCell>
        <mxCell id="oD_eJIm5UnqlN1Q406x1-35" value="" style="endArrow=classic;html=1;rounded=0;exitX=0.5;exitY=1;exitDx=0;exitDy=0;entryX=0.5;entryY=0;entryDx=0;entryDy=0;" edge="1" parent="1" source="oD_eJIm5UnqlN1Q406x1-10" target="oD_eJIm5UnqlN1Q406x1-11">
          <mxGeometry width="50" height="50" relative="1" as="geometry">
            <mxPoint x="-160" y="520" as="sourcePoint" />
            <mxPoint x="-140" y="520" as="targetPoint" />
          </mxGeometry>
        </mxCell>
        <mxCell id="oD_eJIm5UnqlN1Q406x1-36" value="" style="endArrow=classic;html=1;rounded=0;entryX=0.5;entryY=0;entryDx=0;entryDy=0;exitX=0.5;exitY=1;exitDx=0;exitDy=0;" edge="1" parent="1" source="oD_eJIm5UnqlN1Q406x1-11" target="oD_eJIm5UnqlN1Q406x1-12">
          <mxGeometry width="50" height="50" relative="1" as="geometry">
            <mxPoint x="-150" y="530" as="sourcePoint" />
            <mxPoint x="-130" y="530" as="targetPoint" />
          </mxGeometry>
        </mxCell>
        <mxCell id="oD_eJIm5UnqlN1Q406x1-37" value="" style="endArrow=classic;html=1;rounded=0;entryX=0.5;entryY=0;entryDx=0;entryDy=0;exitX=0.5;exitY=1;exitDx=0;exitDy=0;" edge="1" parent="1" source="oD_eJIm5UnqlN1Q406x1-12" target="oD_eJIm5UnqlN1Q406x1-13">
          <mxGeometry width="50" height="50" relative="1" as="geometry">
            <mxPoint x="-140" y="540" as="sourcePoint" />
            <mxPoint x="-120" y="540" as="targetPoint" />
          </mxGeometry>
        </mxCell>
        <mxCell id="oD_eJIm5UnqlN1Q406x1-38" value="" style="endArrow=classic;html=1;rounded=0;exitX=0.5;exitY=1;exitDx=0;exitDy=0;entryX=0.5;entryY=0;entryDx=0;entryDy=0;" edge="1" parent="1" source="oD_eJIm5UnqlN1Q406x1-13" target="oD_eJIm5UnqlN1Q406x1-14">
          <mxGeometry width="50" height="50" relative="1" as="geometry">
            <mxPoint x="-130" y="550" as="sourcePoint" />
            <mxPoint x="-110" y="550" as="targetPoint" />
          </mxGeometry>
        </mxCell>
        <mxCell id="oD_eJIm5UnqlN1Q406x1-39" value="" style="endArrow=classic;html=1;rounded=0;exitX=0.5;exitY=1;exitDx=0;exitDy=0;entryX=0.5;entryY=0;entryDx=0;entryDy=0;" edge="1" parent="1" source="oD_eJIm5UnqlN1Q406x1-14" target="oD_eJIm5UnqlN1Q406x1-15">
          <mxGeometry width="50" height="50" relative="1" as="geometry">
            <mxPoint x="130" y="510" as="sourcePoint" />
            <mxPoint x="150" y="510" as="targetPoint" />
          </mxGeometry>
        </mxCell>
        <mxCell id="oD_eJIm5UnqlN1Q406x1-40" value="" style="endArrow=classic;html=1;rounded=0;exitX=0.5;exitY=1;exitDx=0;exitDy=0;entryX=0.5;entryY=0;entryDx=0;entryDy=0;" edge="1" parent="1" source="oD_eJIm5UnqlN1Q406x1-15" target="oD_eJIm5UnqlN1Q406x1-16">
          <mxGeometry width="50" height="50" relative="1" as="geometry">
            <mxPoint x="140" y="520" as="sourcePoint" />
            <mxPoint x="160" y="520" as="targetPoint" />
          </mxGeometry>
        </mxCell>
        <mxCell id="oD_eJIm5UnqlN1Q406x1-41" value="" style="endArrow=classic;html=1;rounded=0;exitX=0.5;exitY=1;exitDx=0;exitDy=0;entryX=0.5;entryY=0;entryDx=0;entryDy=0;" edge="1" parent="1" source="oD_eJIm5UnqlN1Q406x1-16" target="oD_eJIm5UnqlN1Q406x1-17">
          <mxGeometry width="50" height="50" relative="1" as="geometry">
            <mxPoint x="150" y="530" as="sourcePoint" />
            <mxPoint x="170" y="530" as="targetPoint" />
          </mxGeometry>
        </mxCell>
        <mxCell id="oD_eJIm5UnqlN1Q406x1-42" value="" style="endArrow=classic;html=1;rounded=0;exitX=0.5;exitY=1;exitDx=0;exitDy=0;entryX=0.5;entryY=0;entryDx=0;entryDy=0;" edge="1" parent="1" source="oD_eJIm5UnqlN1Q406x1-17" target="oD_eJIm5UnqlN1Q406x1-19">
          <mxGeometry width="50" height="50" relative="1" as="geometry">
            <mxPoint x="310" y="510" as="sourcePoint" />
            <mxPoint x="330" y="510" as="targetPoint" />
          </mxGeometry>
        </mxCell>
        <mxCell id="oD_eJIm5UnqlN1Q406x1-44" value="" style="endArrow=classic;html=1;rounded=0;exitX=0.5;exitY=1;exitDx=0;exitDy=0;entryX=0.5;entryY=0;entryDx=0;entryDy=0;" edge="1" parent="1" source="oD_eJIm5UnqlN1Q406x1-19" target="oD_eJIm5UnqlN1Q406x1-20">
          <mxGeometry width="50" height="50" relative="1" as="geometry">
            <mxPoint x="370" y="510" as="sourcePoint" />
            <mxPoint x="390" y="510" as="targetPoint" />
          </mxGeometry>
        </mxCell>
        <mxCell id="oD_eJIm5UnqlN1Q406x1-45" value="" style="rounded=0;whiteSpace=wrap;html=1;rotation=0;fillColor=#fff2cc;strokeColor=#d6b656;" vertex="1" parent="1">
          <mxGeometry x="-30" y="675" width="20" height="20" as="geometry" />
        </mxCell>
        <mxCell id="oD_eJIm5UnqlN1Q406x1-46" value="" style="rounded=0;whiteSpace=wrap;html=1;rotation=0;fillColor=#ffe6cc;strokeColor=#d79b00;" vertex="1" parent="1">
          <mxGeometry x="-30" y="715" width="20" height="20" as="geometry" />
        </mxCell>
        <mxCell id="oD_eJIm5UnqlN1Q406x1-47" value="" style="rounded=0;whiteSpace=wrap;html=1;rotation=0;fillColor=#d5e8d4;strokeColor=#82b366;" vertex="1" parent="1">
          <mxGeometry x="-30" y="755" width="20" height="20" as="geometry" />
        </mxCell>
        <mxCell id="oD_eJIm5UnqlN1Q406x1-48" value="Convolutional Layer" style="text;html=1;align=center;verticalAlign=middle;resizable=0;points=[];autosize=1;strokeColor=none;fillColor=none;" vertex="1" parent="1">
          <mxGeometry x="-15" y="670" width="130" height="30" as="geometry" />
        </mxCell>
        <mxCell id="oD_eJIm5UnqlN1Q406x1-49" value="Residual Block&lt;br&gt;(Convolutional)" style="text;html=1;align=center;verticalAlign=middle;resizable=0;points=[];autosize=1;strokeColor=none;fillColor=none;" vertex="1" parent="1">
          <mxGeometry x="-15" y="705" width="100" height="40" as="geometry" />
        </mxCell>
        <mxCell id="oD_eJIm5UnqlN1Q406x1-52" value="Transpose Convolutional Layer" style="text;html=1;align=center;verticalAlign=middle;resizable=0;points=[];autosize=1;strokeColor=none;fillColor=none;" vertex="1" parent="1">
          <mxGeometry x="-15" y="750" width="190" height="30" as="geometry" />
        </mxCell>
        <mxCell id="oD_eJIm5UnqlN1Q406x1-53" value="&lt;font style=&quot;font-size: 18px;&quot;&gt;Encoder&lt;/font&gt;" style="text;html=1;align=center;verticalAlign=middle;resizable=0;points=[];autosize=1;strokeColor=none;fillColor=none;" vertex="1" parent="1">
          <mxGeometry x="-185" y="285" width="90" height="40" as="geometry" />
        </mxCell>
        <mxCell id="oD_eJIm5UnqlN1Q406x1-54" value="&lt;font style=&quot;font-size: 18px;&quot;&gt;Transformer&lt;/font&gt;" style="text;html=1;align=center;verticalAlign=middle;resizable=0;points=[];autosize=1;strokeColor=none;fillColor=none;" vertex="1" parent="1">
          <mxGeometry x="65" y="283" width="120" height="40" as="geometry" />
        </mxCell>
        <mxCell id="oD_eJIm5UnqlN1Q406x1-55" value="&lt;font style=&quot;font-size: 18px;&quot;&gt;Decoder&lt;/font&gt;" style="text;html=1;align=center;verticalAlign=middle;resizable=0;points=[];autosize=1;strokeColor=none;fillColor=none;" vertex="1" parent="1">
          <mxGeometry x="305" y="283" width="90" height="40" as="geometry" />
        </mxCell>
      </root>
    </mxGraphModel>
  </diagram>
</mxfile>
